<?xml version="1.0" encoding="utf-8"?>
<!-- Generator: Adobe Illustrator 21.0.0, SVG Export Plug-In . SVG Version: 6.00 Build 0)  -->
<svg version="1.1" id="BURUNGIUARCHITECTS_x0D_" xmlns="http://www.w3.org/2000/svg" xmlns:xlink="http://www.w3.org/1999/xlink"
	 x="0px" y="0px" viewBox="0 0 230 20" style="enable-background:new 0 0 230 20;" xml:space="preserve">
<style type="text/css">
	.st0{fill:#3D3C3C;}
	.st1{fill:#282727;}
</style>
<g>
	<path class="st0" d="M1.8,2.5h6.9c3.9,0,5.8,1.8,5.8,4c0,1.8-1.2,2.9-2.8,3.4c2.1,0.5,3.5,1.7,3.5,3.7c0,2.8-2.3,4.3-5.9,4.3H1.8
		V2.5z M8.6,9.3c2.5,0,3.7-1.2,3.7-2.7c0-1.4-1.1-2.6-3.7-2.6H4v5.2H8.6z M9.2,16.3c2.4,0,3.8-1,3.8-2.8c0-1.7-1.6-2.7-3.8-2.7H4
		v5.5H9.2z"/>
	<path class="st0" d="M16.2,2.5h2.1v9.7c0,2.8,2.1,4.3,4.8,4.3s4.8-1.5,4.8-4.3V2.5H30v9.7c0,4-3,6-6.9,6c-3.9,0-6.9-2-6.9-6V2.5z"
		/>
	<path class="st0" d="M31.8,2.5h7.3c4.4,0,6,2.3,6,4.6c0,1.8-1.1,3.7-3.7,4.3l3.7,6.5h-2.3l-3.3-6.2h-0.3h-5.3v6.2h-2.1V2.5z
		 M39,10.2c2.8,0,3.9-1.5,3.9-3.1c0-1.6-1.1-3-3.9-3h-5.2v6.1H39z"/>
	<path class="st0" d="M46.3,2.5h2.1v9.7c0,2.8,2.1,4.3,4.8,4.3S58,15,58,12.2V2.5h2.1v9.7c0,4-3,6-6.9,6s-6.9-2-6.9-6V2.5z"/>
	<path class="st0" d="M61.9,2.5H64L73.8,15V2.5h2v15.4h-2.2L63.9,5.5v12.5h-2V2.5z"/>
	<path class="st0" d="M85.7,2.3c2.2,0,4.2,0.6,5.9,1.5l-1.1,1.4c-1.4-0.8-3-1.3-4.7-1.3c-4,0-6.7,2.5-6.7,6.2c0,4,2.5,6.5,6.7,6.5
		c1.6,0,3.1-0.4,4.1-0.9v-4.4H85V9.8h6.8v6.8c-1.6,1-3.8,1.6-6.1,1.6c-5.4,0-8.8-3.2-8.8-8.1C76.9,5.5,80.4,2.3,85.7,2.3z"/>
	<path class="st0" d="M93.4,2.5h2.1v15.4h-2.1V2.5z"/>
	<path class="st0" d="M97.3,2.5h2.1v9.7c0,2.8,2.1,4.3,4.8,4.3s4.8-1.5,4.8-4.3V2.5h2.1v9.7c0,4-3,6-6.9,6c-3.9,0-6.9-2-6.9-6V2.5z"
		/>
	<path class="st1" d="M117.7,2.5h0.8l6.2,15.4H124l-1.8-4.6H114l-1.8,4.6h-0.6L117.7,2.5z M114.2,12.9h7.9l-3.9-10h0L114.2,12.9z"/>
	<path class="st1" d="M125.5,2.5h6.2c3.6,0,4.9,2.2,4.9,4.3c0,1.8-1.1,3.9-3.9,4.3l3.7,6.8h-0.7l-3.6-6.7c-0.2,0-0.3,0-0.5,0H126
		v6.7h-0.5V2.5z M131.6,10.8c3.3,0,4.4-2.1,4.4-3.9c0-1.8-1.1-3.9-4.4-3.9H126v7.7H131.6z"/>
	<path class="st1" d="M145.2,2.3c1.8,0,3.5,0.5,4.8,1.4l-0.3,0.4c-1.2-0.9-2.8-1.4-4.5-1.4c-4.3,0-7.2,2.9-7.2,7.3
		c0,4.6,2.8,7.7,7.2,7.7c1.8,0,3.6-0.6,4.8-1.6l0.4,0.4c-1.3,1.1-3.2,1.7-5.1,1.7c-4.7,0-7.7-3.3-7.7-8.2
		C137.5,5.4,140.6,2.3,145.2,2.3z"/>
	<path class="st1" d="M152.1,2.5h0.5v7.3h10.2V2.5h0.5v15.4h-0.5v-7.6h-10.2v7.6h-0.5V2.5z"/>
	<path class="st1" d="M165.5,2.5h0.5v15.4h-0.5V2.5z"/>
	<path class="st1" d="M173,3h-6.1V2.5h12.8V3h-6.1v14.9H173V3z"/>
	<path class="st1" d="M180.4,2.5h10.2V3H181v6.8h8.7v0.5H181v7.1h9.8v0.5h-10.4V2.5z"/>
	<path class="st1" d="M199.1,2.3c1.8,0,3.5,0.5,4.8,1.4l-0.3,0.4c-1.2-0.9-2.8-1.4-4.5-1.4c-4.3,0-7.2,2.9-7.2,7.3
		c0,4.6,2.8,7.7,7.2,7.7c1.8,0,3.6-0.6,4.8-1.6l0.4,0.4c-1.3,1.1-3.2,1.7-5.1,1.7c-4.7,0-7.7-3.3-7.7-8.2
		C191.4,5.4,194.6,2.3,199.1,2.3z"/>
	<path class="st1" d="M210.5,3h-6.1V2.5h12.8V3h-6.1v14.9h-0.5V3z"/>
	<path class="st1" d="M217.2,16.3c1,0.7,2.9,1.4,5.1,1.4c3.2,0,4.7-1.5,4.7-3.5c0-5.4-9.9-2-9.9-8c0-2.2,1.8-3.9,5-3.9
		c2.1,0,3.7,0.5,4.7,1l-0.3,0.5c-1-0.5-2.5-1-4.5-1c-2.8,0-4.5,1.5-4.5,3.4c0,5.5,9.9,1.9,9.9,8c0,2.3-1.7,4-5.3,4
		c-2.3,0-4.3-0.7-5.4-1.5L217.2,16.3z"/>
</g>
</svg>
